<svg width="100" height="100" viewBox="0 0 100 100" fill="none" xmlns="http://www.w3.org/2000/svg">
<path d="M100 49.998C100 77.613 77.615 100 49.998 100C22.385 100 0 77.613 0 49.998C0 22.385 22.385 0 49.998 0C77.615 0 100 22.385 100 49.998Z" fill="#A3C095"/>
<path d="M93.762 56.225C93.762 57.893 93.117 59.389 91.826 60.723C90.537 62.055 89.056 62.721 87.39 62.721C84.728 62.721 82.767 61.471 81.521 58.973L75.65 58.723C74.398 58.723 71.941 59.266 68.279 60.348C64.365 61.43 62.115 62.305 61.533 62.971C60.617 63.969 59.869 66.303 59.285 69.967C58.783 72.965 58.537 75.172 58.537 76.588C58.537 78.834 58.889 80.481 59.598 81.522C60.307 82.563 61.764 83.438 63.969 84.145C66.174 84.852 67.53 85.249 68.03 85.332C68.362 85.332 68.903 85.291 69.655 85.207H71.153C72.233 85.207 73.358 85.377 74.526 85.707C76.192 86.207 76.901 86.873 76.651 87.707C75.483 87.541 73.444 87.791 70.53 88.457L74.026 90.205C74.026 91.205 72.61 91.703 69.78 91.703C69.028 91.703 68.009 91.537 66.717 91.205C65.426 90.869 64.572 90.705 64.158 90.705H62.533C62.451 91.537 62.199 92.785 61.783 94.451C60.365 94.367 58.703 93.533 56.787 91.953C54.869 90.373 53.664 89.58 53.166 89.58C52.664 89.58 51.955 90.373 51.041 91.953C50.123 93.533 49.666 94.617 49.666 95.201C48.584 94.617 47.67 93.533 46.916 91.953C46.584 90.869 46.209 89.787 45.795 88.705C44.963 88.789 43.42 90.539 41.174 93.953H40.547C40.381 93.701 39.752 91.953 38.674 88.705C36.092 87.873 33.678 87.457 31.428 87.457C30.346 87.457 28.68 87.707 26.432 88.205L22.936 87.957C23.434 87.457 24.891 86.5 27.307 85.084C30.137 83.418 32.303 82.584 33.803 82.584C34.049 82.584 34.381 82.627 34.803 82.709C35.217 82.795 35.553 82.834 35.803 82.834C36.381 82.834 37.321 82.522 38.612 81.896C39.903 81.273 40.651 80.71 40.858 80.212C41.069 79.708 41.174 78.419 41.174 76.337C41.174 71.591 39.924 68.052 37.424 65.72C35.256 63.638 31.678 62.14 26.68 61.222C25.348 65.968 21.6 68.345 15.44 68.345C13.44 68.345 11.442 67.138 9.444 64.722C7.448 62.306 6.448 60.099 6.448 58.101C6.448 55.019 7.735 52.48 10.317 50.478C8.237 48.316 7.196 46.109 7.196 43.861C7.196 41.777 7.839 39.947 9.132 38.361C10.423 36.783 12.109 35.865 14.191 35.613C14.025 32.951 14.898 31.117 16.814 30.117C15.898 29.203 15.441 27.58 15.441 25.248C15.441 22.5 16.357 20.209 18.189 18.377C20.019 16.545 22.31 15.627 25.058 15.627C28.058 15.627 30.515 16.672 32.429 18.752C34.845 10.508 40.05 6.38498 48.042 6.38498C52.206 6.38498 55.87 8.05098 59.036 11.383C60.202 12.631 60.784 13.299 60.784 13.379C59.784 13.379 60.286 13.191 62.284 12.818C64.28 12.443 65.737 12.255 66.657 12.255C69.903 12.255 72.776 13.462 75.276 15.878C77.44 18.044 78.94 20.79 79.774 24.122C80.354 24.206 81.272 24.454 82.522 24.87C84.352 25.79 85.27 27.368 85.27 29.618C85.27 30.036 84.934 30.827 84.27 31.991C89.598 34.989 92.264 39.153 92.264 44.483C92.264 45.981 91.682 48.067 90.516 50.73C92.682 51.977 93.762 53.811 93.762 56.225ZM42.295 61.721V60.098C42.295 58.184 41.359 56.434 39.486 54.852C37.611 53.27 35.716 52.479 33.802 52.479C31.468 52.479 29.306 53.02 27.306 54.1C31.719 53.852 36.717 56.393 42.295 61.721ZM40.049 46.232C38.799 44.814 37.717 43.357 36.799 41.859C33.301 42.775 31.553 43.816 31.553 44.98C32.553 44.9 34.01 45.085 35.924 45.544C37.838 46.003 39.215 46.232 40.049 46.232ZM47.67 42.359V36.863C45.67 36.531 44.459 36.363 44.047 36.363V38.236L47.67 42.359ZM63.908 38.861C62.908 38.445 61.033 37.611 58.287 36.363V47.105C62.199 44.855 64.072 42.107 63.908 38.861ZM70.775 53.602L68.029 50.229C66.365 51.396 64.677 52.583 62.968 53.79C61.259 54.997 59.782 56.353 58.536 57.85C62.283 55.848 66.365 54.436 70.775 53.602Z" fill="#0D0F0F"/>
</svg>
