<svg width="100" height="100" viewBox="0 0 100 100" fill="none" xmlns="http://www.w3.org/2000/svg">
<path d="M50 100C77.6142 100 100 77.6142 100 50C100 22.3858 77.6142 0 50 0C22.3858 0 0 22.3858 0 50C0 77.6142 22.3858 100 50 100Z" fill="#C1D7E9"/>
<path d="M67.488 83.719C62.701 88.59 56.804 91.026 49.8 91.026C41.939 91.026 35.702 88.336 31.089 82.953C26.73 77.826 24.552 71.291 24.552 63.347C24.552 54.804 28.269 45.061 35.702 34.123C41.766 25.154 48.901 17.293 57.104 10.543C55.907 16.012 55.311 19.898 55.311 22.205C55.311 27.504 56.975 32.672 60.307 37.713C64.409 43.693 67.526 48.139 69.664 51.041C72.996 56.084 74.662 60.996 74.662 65.778C74.664 72.871 72.271 78.852 67.488 83.719ZM67.359 56.357C66.078 53.496 64.582 51.595 62.873 50.654C63.129 51.168 63.258 51.894 63.258 52.834C63.258 54.629 62.746 57.191 61.719 60.523L60.055 65.65C60.055 68.64 61.547 70.136 64.539 70.136C67.699 70.136 69.281 68.041 69.281 63.855C69.281 61.721 68.641 59.223 67.359 56.357Z" fill="#0D0F0F"/>
</svg>
