<svg width="100" height="100" viewBox="0 0 100 100" fill="none" xmlns="http://www.w3.org/2000/svg">
<path d="M50 100C77.6142 100 100 77.6142 100 50C100 22.3858 77.6142 0 50 0C22.3858 0 0 22.3858 0 50C0 77.6142 22.3858 100 50 100Z" fill="#E49977"/>
<path d="M91.965 66.617C88.229 75.529 80.805 79.984 69.69 79.984C67.653 79.984 65.444 80.238 63.069 80.746C59.505 81.51 57.723 82.574 57.723 83.932C57.723 84.356 58.018 84.842 58.614 85.395C59.206 85.948 59.718 86.221 60.141 86.221C58.018 86.221 59.461 86.285 64.467 86.412C69.475 86.539 72.615 86.603 73.889 86.603C66.506 90.929 54.157 92.922 36.846 92.584C31.158 92.5 26.28 89.996 22.207 85.074C18.215 80.405 16.223 75.186 16.223 69.416C16.223 63.308 18.28 58.108 22.399 53.821C26.512 49.539 31.628 47.394 37.737 47.394C39.094 47.394 40.897 47.691 43.147 48.285C45.395 48.879 46.903 49.176 47.665 49.176C50.804 49.176 54.71 47.883 59.378 45.293C64.044 42.705 66.253 41.41 65.999 41.41C65.149 50.322 62.179 56.306 57.085 59.358C53.437 61.481 51.612 63.559 51.612 65.594C51.612 66.867 52.376 67.887 53.903 68.651C55.091 69.246 56.405 69.543 57.848 69.543C60.055 69.543 62.219 68.187 64.342 65.472C66.461 62.754 67.397 60.295 67.143 58.086C66.889 55.541 67.059 52.483 67.653 48.922C67.821 47.902 68.436 46.652 69.497 45.168C70.558 43.682 71.513 42.77 72.362 42.43C72.362 43.192 72.087 44.467 71.534 46.248C70.981 48.029 70.708 49.348 70.708 50.195C70.708 52.062 71.216 53.504 72.235 54.521C73.76 53.929 75.118 52.019 76.309 48.792C77.325 46.333 77.918 43.956 78.09 41.665C74.524 41.495 71.108 39.884 67.842 36.827C64.574 33.77 62.942 30.462 62.942 26.899C62.942 26.305 63.024 25.711 63.198 25.116C63.706 25.88 64.469 27.069 65.487 28.68C66.93 30.801 68.034 31.862 68.8 31.862C69.816 31.862 70.325 30.801 70.325 28.68C70.325 25.965 69.602 23.504 68.161 21.297C66.548 18.666 64.468 17.35 61.923 17.35C60.734 17.35 58.952 17.987 56.579 19.26C54.2 20.531 52.036 21.17 50.087 21.17C49.491 21.17 46.858 20.404 42.192 18.877C50.422 17.522 54.54 16.291 54.54 15.186C54.54 12.301 48.895 10.348 37.61 9.331C36.505 9.247 34.469 9.077 31.499 8.821C31.837 8.397 34.257 7.93 38.757 7.421C42.575 6.999 45.249 6.784 46.775 6.784C66.972 6.784 79.787 16.589 85.218 36.192C86.152 35.419 86.62 34.126 86.62 32.321C86.62 29.997 85.94 27.071 84.583 23.544C84.071 22.169 83.265 20.103 82.163 17.351C89.12 26.218 92.602 34.621 92.602 42.55C92.602 46.728 91.623 50.523 89.672 53.931C88.402 56.234 86.022 59.175 82.545 62.757C79.065 66.337 76.688 69.109 75.414 71.07C80.082 69.799 83.139 68.822 84.582 68.142C87.805 66.702 90.732 64.536 93.365 61.65C93.365 62.756 92.898 64.412 91.965 66.617ZM36.463 16.592C36.463 18.117 35.613 19.094 33.918 19.518L30.607 20.028C29.418 20.622 27.679 22.956 25.388 27.028C25.132 25.757 24.751 23.975 24.242 21.682C23.478 21.768 22.207 22.446 20.424 23.719C19.66 24.313 18.428 25.203 16.731 26.391C17.243 23.336 18.938 20.243 21.825 17.098C24.88 13.621 27.85 11.881 30.735 11.881C34.553 11.881 36.463 13.453 36.463 16.592ZM58.613 28.301C58.613 29.744 57.828 30.955 56.258 31.93C54.688 32.907 53.139 33.395 51.612 33.395C49.575 33.395 47.749 32.249 46.139 29.957C44.184 27.156 42.192 25.332 40.155 24.48C40.579 24.058 41.089 23.845 41.684 23.845C42.448 23.845 43.739 24.439 45.565 25.626C47.389 26.815 48.555 27.409 49.067 27.409C49.491 27.409 50.19 26.815 51.167 25.626C52.142 24.438 53.224 23.845 54.413 23.845C57.213 23.846 58.613 25.332 58.613 28.301Z" fill="#0D0F0F"/>
</svg>
