<svg width="100" height="100" viewBox="0 0 100 100" fill="none" xmlns="http://www.w3.org/2000/svg">
<path d="M50 100C77.6142 100 100 77.6142 100 50C100 22.3858 77.6142 0 50 0C22.3858 0 0 22.3858 0 50C0 77.6142 22.3858 100 50 100Z" fill="#F8F6D8"/>
<path d="M97.691 57.064C91.13 53.365 86.923 51.513 85.074 51.513C83.73 51.513 82.679 52.545 81.92 54.605C81.162 56.668 79.65 57.695 77.379 57.695C76.453 57.695 74.561 57.359 71.701 56.687C70.103 59.127 69.303 60.683 69.303 61.355C69.303 62.281 69.992 63.371 71.367 64.636C72.742 65.898 73.902 66.527 74.849 66.527C75.451 66.527 76.265 66.402 77.298 66.148C78.329 65.898 79.019 65.771 79.362 65.771C80.395 65.771 80.909 67.664 80.909 71.449C80.909 75.066 80.069 80.617 78.386 88.103C76.198 79.523 73.886 75.232 71.448 75.232C71.11 75.232 70.417 75.484 69.366 75.992C68.313 76.494 67.536 76.746 67.032 76.746C64.594 76.746 62.407 74.519 60.471 70.058C56.602 70.648 54.666 72.625 54.666 75.992C54.666 77.676 55.443 79.019 57.002 80.027C58.555 81.035 59.336 81.754 59.336 82.172C59.336 84.445 56.012 87.936 49.367 92.645C45.836 95.168 43.394 96.934 42.051 97.942C43.225 96.43 44.403 94.455 45.584 92.014C46.928 89.239 47.602 87.094 47.602 85.578C47.602 84.738 46.635 83.558 44.7 82.045C42.764 80.533 41.8 78.934 41.8 77.252C41.8 75.824 42.302 74.059 43.312 71.953C42.218 70.691 40.917 70.058 39.402 70.058C36.037 70.058 34.357 71.154 34.357 73.338C34.357 71.824 34.357 72.959 34.357 76.744C34.439 79.52 32.337 80.908 28.046 80.908C24.767 80.908 19.255 80.149 11.519 78.637C20.267 76.449 24.64 73.926 24.64 71.067C24.64 71.403 24.472 70.395 24.136 68.039C23.798 65.435 25.65 63.078 29.687 60.976C28.929 57.109 26.914 55.17 23.63 55.17C23.126 55.17 22.198 56.054 20.855 57.817C19.509 59.588 18.248 60.469 17.072 60.469C15.052 60.469 12.443 58.283 9.25 53.906C7.734 51.722 5.42002 48.482 2.30902 44.191C4.24302 45.203 6.17801 46.211 8.11401 47.222C10.637 48.398 12.655 48.988 14.171 48.988C15.349 48.988 16.505 47.957 17.64 45.896C18.775 43.835 20.269 42.804 22.119 42.804C22.373 42.804 24.055 43.308 27.166 44.32C28.762 41.881 29.564 40.072 29.564 38.894C29.564 37.884 28.953 36.728 27.734 35.423C26.513 34.12 25.4 33.468 24.39 33.468C23.968 33.468 23.318 33.593 22.433 33.847C21.552 34.099 20.9 34.226 20.48 34.226C18.964 34.226 18.207 32.333 18.207 28.548C18.207 27.538 19.176 21.778 21.111 11.263C21.025 12.523 21.572 14.88 22.75 18.327C24.18 22.534 25.861 24.636 27.799 24.636C28.133 24.636 28.807 24.384 29.817 23.878C30.825 23.374 31.624 23.124 32.213 23.124C34.147 23.124 35.744 24.218 37.008 26.401L38.901 29.807C40.667 29.807 42.139 29.178 43.315 27.916C44.493 26.654 45.083 25.139 45.083 23.373C45.083 21.523 44.306 20.113 42.749 19.146C41.19 18.179 40.413 17.443 40.413 16.939C40.413 15.171 43.19 12.187 48.741 7.98096C53.198 4.61796 56.1 2.64096 57.448 2.05096C53.831 6.92996 52.022 10.502 52.022 12.775C52.022 13.953 52.735 15.216 54.167 16.56C55.933 18.158 56.942 19.294 57.194 19.966C58.034 21.904 57.95 24.552 56.942 27.915C59.213 29.515 60.936 30.311 62.116 30.311C64.552 30.311 65.774 29.047 65.774 26.526C65.774 26.274 65.669 25.475 65.46 24.13C65.247 22.786 65.187 22.028 65.269 21.859C65.605 20.681 67.919 20.091 72.208 20.091C74.899 20.091 80.491 20.849 88.989 22.364C87.137 22.868 84.362 23.624 80.663 24.634C77.298 25.644 75.614 26.779 75.614 28.04C75.614 28.63 75.823 29.638 76.245 31.067C76.665 32.499 76.878 33.547 76.878 34.223C76.878 35.399 76.12 36.493 74.607 37.5L70.316 40.531C71.326 42.383 71.998 43.476 72.336 43.81C73.176 44.818 74.311 45.324 75.742 45.324C76.752 45.324 77.676 44.441 78.517 42.676C79.357 40.908 80.705 40.026 82.554 40.026C84.824 40.026 87.392 42.13 90.251 46.337C91.844 48.697 94.326 52.27 97.691 57.064ZM69.684 49.748C69.684 44.367 67.705 39.697 63.752 35.742C59.799 31.789 55.131 29.812 49.748 29.812C44.279 29.812 39.568 31.769 35.617 35.681C31.664 39.591 29.644 44.281 29.562 49.747C29.476 55.13 31.474 59.777 35.554 63.685C39.634 67.597 44.365 69.554 49.747 69.554C55.466 69.554 60.239 67.681 64.065 63.939C67.895 60.199 69.766 55.469 69.684 49.748ZM67.791 49.748C67.791 54.879 66.066 59.129 62.617 62.488C59.166 65.855 54.877 67.537 49.748 67.537C44.785 67.537 40.537 65.814 37.006 62.363C33.475 58.918 31.707 54.711 31.707 49.748C31.707 44.871 33.492 40.684 37.066 37.195C40.644 33.705 44.869 31.957 49.748 31.957C54.625 31.957 58.852 33.723 62.428 37.258C66.002 40.791 67.791 44.953 67.791 49.748Z" fill="#0D0F0F"/>
</svg>
